<svg width="128" height="128" viewBox="0 0 128 128" fill="none" xmlns="http://www.w3.org/2000/svg">
  <g filter="url(#filter0_di_48_1047)">
    <!-- Full-size circle/rounded rect -->
    <rect x="32" y="32" width="64" height="64" rx="32" fill="#B7A2FF" fill-opacity="0.2"/>
    
    <!-- Scale up inner icon -->
    <g transform="scale(2)">
      <path d="M28.6266 27.3334C28.6264 27.687 28.4858 28.0261 28.2356 28.276C27.9855 28.526 27.6462 28.6662 27.2926 28.666C26.939 28.6659 26.5999 28.5252 26.35 28.2751C26.1001 28.0249 25.9598 27.6857 25.9599 27.332C25.9602 26.9785 26.1008 26.6394 26.351 26.3895C26.6011 26.1395 26.9404 25.9992 27.294 25.9994C27.6476 25.9996 27.9866 26.1402 28.2366 26.3904C28.4865 26.6405 28.6268 26.9797 28.6266 27.3334ZM28.6666 29.6534H26V38H28.6666V29.6534ZM32.8799 29.6534H30.2266V38H32.8533V33.62C32.8533 31.1801 36.0333 30.9534 36.0333 33.62V38H38.6666V32.7134C38.6666 28.6001 33.9599 28.7534 32.8533 30.7734L32.8799 29.6534Z" fill="white"/>
    </g>
  </g>
  <defs>
    <filter id="filter0_di_48_1047" x="0" y="0" width="128" height="128" filterUnits="userSpaceOnUse" color-interpolation-filters="sRGB">
      <feFlood flood-opacity="0" result="BackgroundImageFix"/>
      <feColorMatrix in="SourceAlpha" type="matrix" values="0 0 0 0 0 0 0 0 0 0 0 0 0 0 0 0 0 0 127 0" result="hardAlpha"/>
      <feOffset/>
      <feGaussianBlur stdDeviation="16"/>
      <feComposite in2="hardAlpha" operator="out"/>
      <feColorMatrix type="matrix" values="0 0 0 0 0.717647 0 0 0 0 0.635294 0 0 0 0 1 0 0 0 0.5 0"/>
      <feBlend mode="normal" in2="BackgroundImageFix" result="effect1_dropShadow_48_1047"/>
      <feBlend mode="normal" in="SourceGraphic" in2="effect1_dropShadow_48_1047" result="shape"/>
      <feColorMatrix in="SourceAlpha" type="matrix" values="0 0 0 0 0 0 0 0 0 0 0 0 0 0 0 0 0 0 127 0" result="hardAlpha"/>
      <feOffset/>
      <feGaussianBlur stdDeviation="12"/>
      <feComposite in2="hardAlpha" operator="arithmetic" k2="-1" k3="1"/>
      <feColorMatrix type="matrix" values="0 0 0 0 0.717093 0 0 0 0 0.635577 0 0 0 0 1 0 0 0 1 0"/>
      <feBlend mode="normal" in2="shape" result="effect2_innerShadow_48_1047"/>
    </filter>
  </defs>
</svg>
