<svg width="46" height="46" viewBox="0 0 46 46" fill="none" xmlns="http://www.w3.org/2000/svg">
<rect width="46" height="46" rx="8" fill="#1E1E1E"/>
<path d="M27.2686 17.1869C26.9068 17.1871 26.5562 17.3127 26.2767 17.5424C25.9971 17.7721 25.8059 18.0916 25.7355 18.4464C25.6651 18.8013 25.7199 19.1696 25.8906 19.4886C26.0613 19.8076 26.3373 20.0576 26.6716 20.1959C27.006 20.3342 27.3779 20.3523 27.7241 20.2471C28.0702 20.1419 28.3692 19.92 28.5701 19.619C28.771 19.3181 28.8613 18.9569 28.8257 18.5968C28.7901 18.2368 28.6308 17.9002 28.3748 17.6445C28.2297 17.4991 28.0572 17.3838 27.8674 17.3053C27.6775 17.2267 27.474 17.1865 27.2686 17.1869Z" fill="white"/>
<path d="M35.975 10.9332C35.9747 10.9314 35.9747 10.9297 35.975 10.9279C35.9254 10.7107 35.8162 10.5117 35.6595 10.3533C35.5029 10.1949 35.3051 10.0834 35.0885 10.0314C33.3424 9.60546 30.5955 10.0596 27.5516 11.2783C24.4836 12.5088 21.609 14.3252 19.666 16.2717C19.0433 16.8912 18.4647 17.5535 17.9346 18.2539C16.6262 18.1953 15.4736 18.3816 14.5027 18.8053C11.1195 20.2941 10.1533 24.1045 9.89609 25.6689C9.85887 25.8912 9.87344 26.1191 9.93868 26.3348C10.0039 26.5506 10.1181 26.7483 10.2722 26.9128C10.4264 27.0772 10.6164 27.2038 10.8275 27.2828C11.0386 27.3618 11.265 27.391 11.4893 27.3682H11.4969L15.2656 26.9568C15.2703 27.0049 15.2756 27.0488 15.2797 27.0892C15.3281 27.5485 15.5329 27.9771 15.8598 28.3033L17.699 30.1437C18.0247 30.4711 18.4533 30.6761 18.9125 30.7244L19.0385 30.7379L18.6283 34.5019V34.5096C18.6074 34.7123 18.6289 34.9172 18.6917 35.1111C18.7544 35.305 18.8569 35.4837 18.9926 35.6357C19.1283 35.7877 19.2943 35.9098 19.4798 35.994C19.6654 36.0783 19.8665 36.1229 20.0703 36.125C20.1518 36.1251 20.2331 36.1185 20.3135 36.1051C21.8867 35.8519 25.6953 34.8975 27.1801 31.4961C27.6002 30.5316 27.7859 29.3838 27.7338 28.0777C28.4373 27.5487 29.1021 26.9701 29.723 26.3463C31.6818 24.3975 33.5041 21.5463 34.7217 18.5228C35.934 15.5135 36.3904 12.7461 35.975 10.9332ZM29.702 21.1801C29.2205 21.662 28.6069 21.9903 27.9388 22.1235C27.2708 22.2567 26.5782 22.1887 25.9488 21.9282C25.3193 21.6676 24.7813 21.2263 24.4028 20.6599C24.0242 20.0935 23.8222 19.4276 23.8222 18.7464C23.8222 18.0652 24.0242 17.3992 24.4028 16.8329C24.7813 16.2665 25.3193 15.8251 25.9488 15.5646C26.5782 15.3041 27.2708 15.2361 27.9388 15.3693C28.6069 15.5024 29.2205 15.8307 29.702 16.3127C30.0246 16.6305 30.2809 17.0094 30.4558 17.4272C30.6307 17.845 30.7208 18.2934 30.7208 18.7464C30.7208 19.1993 30.6307 19.6477 30.4558 20.0656C30.2809 20.4834 30.0246 20.8622 29.702 21.1801Z" fill="white"/>
<path d="M17.488 30.643C17.2613 30.6149 17.0321 30.6705 16.8435 30.7995C16.4691 31.0555 16.0929 31.3086 15.7132 31.5553C14.9451 32.0545 14.0263 31.178 14.4828 30.3834L15.1947 29.153C15.2964 29.0041 15.3531 28.829 15.3579 28.6487C15.3627 28.4684 15.3153 28.2906 15.2216 28.1365C15.1278 27.9824 14.9916 27.8587 14.8293 27.7801C14.6669 27.7015 14.4854 27.6714 14.3064 27.6934C13.5163 27.7933 12.7818 28.1532 12.2187 28.7164C12.0042 28.9315 11.3521 29.5842 11.0011 32.0715C10.9012 32.786 10.8382 33.5051 10.8124 34.226C10.8092 34.3511 10.8311 34.4756 10.8768 34.5922C10.9225 34.7087 10.991 34.8149 11.0784 34.9045C11.1658 34.9941 11.2702 35.0653 11.3855 35.114C11.5009 35.1626 11.6248 35.1876 11.7499 35.1875H11.7734C12.4949 35.162 13.2146 35.0994 13.9296 35C16.4181 34.6485 17.0708 33.9957 17.2853 33.7813C17.8511 33.2179 18.2101 32.48 18.3042 31.6872C18.3344 31.4405 18.2653 31.1919 18.1123 30.9961C17.9592 30.8003 17.7347 30.6733 17.488 30.643Z" fill="white"/>
</svg>
