<svg width="46" height="46" viewBox="0 0 46 46" fill="none" xmlns="http://www.w3.org/2000/svg">
<rect width="46" height="46" rx="8" fill="#1E1E1E"/>
<path d="M26.75 14.75C26.75 15.7446 26.3549 16.6984 25.6517 17.4017C24.9484 18.1049 23.9946 18.5 23 18.5C22.0054 18.5 21.0516 18.1049 20.3483 17.4017C19.6451 16.6984 19.25 15.7446 19.25 14.75C19.25 13.7554 19.6451 12.8016 20.3483 12.0983C21.0516 11.3951 22.0054 11 23 11C23.9946 11 24.9484 11.3951 25.6517 12.0983C26.3549 12.8016 26.75 13.7554 26.75 14.75ZM34.25 15.5C34.25 16.2956 33.9339 17.0587 33.3713 17.6213C32.8087 18.1839 32.0456 18.5 31.25 18.5C30.4544 18.5 29.6913 18.1839 29.1287 17.6213C28.5661 17.0587 28.25 16.2956 28.25 15.5C28.25 14.7044 28.5661 13.9413 29.1287 13.3787C29.6913 12.8161 30.4544 12.5 31.25 12.5C32.0456 12.5 32.8087 12.8161 33.3713 13.3787C33.9339 13.9413 34.25 14.7044 34.25 15.5ZM14.75 18.5C15.5456 18.5 16.3087 18.1839 16.8713 17.6213C17.4339 17.0587 17.75 16.2956 17.75 15.5C17.75 14.7044 17.4339 13.9413 16.8713 13.3787C16.3087 12.8161 15.5456 12.5 14.75 12.5C13.9544 12.5 13.1913 12.8161 12.6287 13.3787C12.0661 13.9413 11.75 14.7044 11.75 15.5C11.75 16.2956 12.0661 17.0587 12.6287 17.6213C13.1913 18.1839 13.9544 18.5 14.75 18.5ZM17 21.875C17 20.84 17.84 20 18.875 20H27.125C28.16 20 29 20.84 29 21.875V29C29 30.5913 28.3679 32.1174 27.2426 33.2426C26.1174 34.3679 24.5913 35 23 35C21.4087 35 19.8826 34.3679 18.7574 33.2426C17.6321 32.1174 17 30.5913 17 29V21.875ZM15.5 21.875C15.5 21.1805 15.71 20.537 16.0685 20H12.875C11.84 20 11 20.84 11 21.875V27.5C10.9999 28.1422 11.1373 28.7769 11.4029 29.3616C11.6685 29.9463 12.0562 30.4674 12.5398 30.8898C13.0235 31.3122 13.592 31.6263 14.2071 31.8108C14.8222 31.9953 15.4697 32.046 16.106 31.9595C15.7054 31.0243 15.4992 30.0174 15.5 29V21.875ZM30.5 29C30.5 30.05 30.284 31.052 29.894 31.9595C30.092 31.9865 30.294 32 30.5 32C31.6935 32 32.8381 31.5259 33.682 30.682C34.5259 29.8381 35 28.6935 35 27.5V21.875C35 20.84 34.16 20 33.125 20H29.9315C30.2915 20.537 30.5 21.1805 30.5 21.875V29Z" fill="white"/>
</svg>
